<?xml version="1.0" encoding="UTF-8" standalone="no"?>
<svg
   xmlns:dc="http://purl.org/dc/elements/1.1/"
   xmlns:cc="http://creativecommons.org/ns#"
   xmlns:rdf="http://www.w3.org/1999/02/22-rdf-syntax-ns#"
   xmlns:svg="http://www.w3.org/2000/svg"
   xmlns="http://www.w3.org/2000/svg"
   xmlns:xlink="http://www.w3.org/1999/xlink"
   xmlns:sodipodi="http://sodipodi.sourceforge.net/DTD/sodipodi-0.dtd"
   xmlns:inkscape="http://www.inkscape.org/namespaces/inkscape"
   width="998"
   height="1323"
   version="1.1"
   id="svg662"
   sodipodi:docname="exercise03_08.svg"
   inkscape:version="1.0.2-2 (e86c870879, 2021-01-15)">
  <metadata
     id="metadata668">
    <rdf:RDF>
      <cc:Work
         rdf:about="">
        <dc:format>image/svg+xml</dc:format>
        <dc:type
           rdf:resource="http://purl.org/dc/dcmitype/StillImage" />
      </cc:Work>
    </rdf:RDF>
  </metadata>
  <defs
     id="defs666">
    <defs
       id="defs658">
      <path
         fill="#333"
         d="M24 0v-248h195v40H76v63h132v40H76v65h150V0H24"
         id="J" />
      <path
         fill="#333"
         d="M144 0l-44-69L55 0H2l70-98-66-92h53l41 62 40-62h54l-67 91 71 99h-54"
         id="K" />
      <path
         fill="#333"
         d="M185-48c-13 30-37 53-82 52C43 2 14-33 14-96s30-98 90-98c62 0 83 45 84 108H66c0 31 8 55 39 56 18 0 30-7 34-22zm-45-69c5-46-57-63-70-21-2 6-4 13-4 21h74"
         id="L" />
      <path
         fill="#333"
         d="M135-150c-39-12-60 13-60 57V0H25l-1-190h47c2 13-1 29 3 40 6-28 27-53 61-41v41"
         id="M" />
      <path
         fill="#333"
         d="M190-63c-7 42-38 67-86 67-59 0-84-38-90-98-12-110 154-137 174-36l-49 2c-2-19-15-32-35-32-30 0-35 28-38 64-6 74 65 87 74 30"
         id="N" />
      <path
         fill="#333"
         d="M25 0v-190h50V0H25zm-5-208v-5l45-51h45v8l-60 48H20"
         id="O" />
      <path
         fill="#333"
         d="M25-224v-37h50v37H25zM25 0v-190h50V0H25"
         id="P" />
      <path
         fill="#333"
         d="M110-194c64 0 96 36 96 99 0 64-35 99-97 99-61 0-95-36-95-99 0-62 34-99 96-99zm-1 164c35 0 45-28 45-65 0-40-10-65-43-65-34 0-45 26-45 65 0 36 10 65 43 65"
         id="Q" />
      <g
         id="a">
        <use
           transform="matrix(0.06172839506172839,0,0,0.06172839506172839,0,0)"
           xlink:href="#J"
           id="use180" />
        <use
           transform="matrix(0.06172839506172839,0,0,0.06172839506172839,14.814814814814813,0)"
           xlink:href="#K"
           id="use182" />
        <use
           transform="matrix(0.06172839506172839,0,0,0.06172839506172839,27.160493827160494,0)"
           xlink:href="#L"
           id="use184" />
        <use
           transform="matrix(0.06172839506172839,0,0,0.06172839506172839,39.50617283950617,0)"
           xlink:href="#M"
           id="use186" />
        <use
           transform="matrix(0.06172839506172839,0,0,0.06172839506172839,48.148148148148145,0)"
           xlink:href="#N"
           id="use188" />
        <use
           transform="matrix(0.06172839506172839,0,0,0.06172839506172839,60.49382716049382,0)"
           xlink:href="#O"
           id="use190" />
        <use
           transform="matrix(0.06172839506172839,0,0,0.06172839506172839,66.66666666666666,0)"
           xlink:href="#N"
           id="use192" />
        <use
           transform="matrix(0.06172839506172839,0,0,0.06172839506172839,79.01234567901234,0)"
           xlink:href="#P"
           id="use194" />
        <use
           transform="matrix(0.06172839506172839,0,0,0.06172839506172839,85.18518518518518,0)"
           xlink:href="#Q"
           id="use196" />
      </g>
      <path
         fill="#333"
         d="M138-131c27 9 52 24 51 61 0 53-36 74-89 74S11-19 11-69c0-35 22-54 51-61-78-25-46-121 38-121 51 0 83 19 83 66 0 30-18 49-45 54zm-38-16c24 0 32-13 32-36 1-23-11-34-32-34-22 0-33 12-32 34 0 22 9 36 32 36zm1 116c27 0 37-17 37-43 0-25-13-39-39-39-24 0-37 15-37 40 0 27 11 42 39 42"
         id="R" />
      <use
         transform="matrix(0.06172839506172839,0,0,0.06172839506172839,0,0)"
         xlink:href="#R"
         id="b" />
      <path
         fill="#333"
         d="M137-138c1-29-70-34-71-4 15 46 118 7 119 86 1 83-164 76-172 9l43-7c4 19 20 25 44 25 33 8 57-30 24-41C81-84 22-81 20-136c-2-80 154-74 161-7"
         id="S" />
      <path
         fill="#333"
         d="M115-3C79 11 28 4 28-45v-112H4v-33h27l15-45h31v45h36v33H77v99c-1 23 16 31 38 25v30"
         id="T" />
      <path
         fill="#333"
         d="M85 4C-2 5 27-109 22-190h50c7 57-23 150 33 157 60-5 35-97 40-157h50l1 190h-47c-2-12 1-28-3-38-12 25-28 42-61 42"
         id="U" />
      <path
         fill="#333"
         d="M88-194c31-1 46 15 58 34l-1-101h50l1 261h-48c-2-10 0-23-3-31C134-8 116 4 84 4 32 4 16-41 15-95c0-56 19-97 73-99zm17 164c33 0 40-30 41-66 1-37-9-64-41-64s-38 30-39 65c0 43 13 65 39 65"
         id="V" />
      <g
         id="c">
        <use
           transform="matrix(0.06172839506172839,0,0,0.06172839506172839,0,0)"
           xlink:href="#J"
           id="use205" />
        <use
           transform="matrix(0.06172839506172839,0,0,0.06172839506172839,14.814814814814813,0)"
           xlink:href="#S"
           id="use207" />
        <use
           transform="matrix(0.06172839506172839,0,0,0.06172839506172839,27.160493827160494,0)"
           xlink:href="#T"
           id="use209" />
        <use
           transform="matrix(0.06172839506172839,0,0,0.06172839506172839,34.50617283950617,0)"
           xlink:href="#U"
           id="use211" />
        <use
           transform="matrix(0.06172839506172839,0,0,0.06172839506172839,48.02469135802469,0)"
           xlink:href="#V"
           id="use213" />
        <use
           transform="matrix(0.06172839506172839,0,0,0.06172839506172839,61.54320987654321,0)"
           xlink:href="#Q"
           id="use215" />
      </g>
      <g
         id="d">
        <use
           transform="matrix(0.06172839506172839,0,0,0.06172839506172839,0,0)"
           xlink:href="#V"
           id="use218" />
        <use
           transform="matrix(0.06172839506172839,0,0,0.06172839506172839,13.518518518518517,0)"
           xlink:href="#L"
           id="use220" />
      </g>
      <path
         fill="#333"
         d="M133-34C117-15 103 5 69 4 32 3 11-16 11-54c-1-60 55-63 116-61 1-26-3-47-28-47-18 1-26 9-28 27l-52-2c7-38 36-58 82-57s74 22 75 68l1 82c-1 14 12 18 25 15v27c-30 8-71 5-69-32zm-48 3c29 0 43-24 42-57-32 0-66-3-65 30 0 17 8 27 23 27"
         id="W" />
      <g
         id="e">
        <use
           transform="matrix(0.06172839506172839,0,0,0.06172839506172839,0,0)"
           xlink:href="#N"
           id="use224" />
        <use
           transform="matrix(0.06172839506172839,0,0,0.06172839506172839,12.345679012345679,0)"
           xlink:href="#W"
           id="use226" />
        <use
           transform="matrix(0.06172839506172839,0,0,0.06172839506172839,24.691358024691358,0)"
           xlink:href="#S"
           id="use228" />
        <use
           transform="matrix(0.06172839506172839,0,0,0.06172839506172839,37.03703703703704,0)"
           xlink:href="#Q"
           id="use230" />
      </g>
      <path
         fill="#333"
         d="M14-72v-43h91v43H14"
         id="X" />
      <use
         transform="matrix(0.06172839506172839,0,0,0.06172839506172839,0,0)"
         xlink:href="#X"
         id="f" />
      <path
         fill="#333"
         d="M24 0v-248h52v208h133V0H24"
         id="Y" />
      <g
         id="g">
        <use
           transform="matrix(0.06172839506172839,0,0,0.06172839506172839,0,0)"
           xlink:href="#Y"
           id="use236" />
        <use
           transform="matrix(0.06172839506172839,0,0,0.06172839506172839,13.518518518518517,0)"
           xlink:href="#Q"
           id="use238" />
        <use
           transform="matrix(0.06172839506172839,0,0,0.06172839506172839,27.037037037037035,0)"
           xlink:href="#N"
           id="use240" />
        <use
           transform="matrix(0.06172839506172839,0,0,0.06172839506172839,39.382716049382715,0)"
           xlink:href="#W"
           id="use242" />
        <use
           transform="matrix(0.06172839506172839,0,0,0.06172839506172839,51.72839506172839,0)"
           xlink:href="#V"
           id="use244" />
        <use
           transform="matrix(0.06172839506172839,0,0,0.06172839506172839,65.24691358024691,0)"
           xlink:href="#Q"
           id="use246" />
        <use
           transform="matrix(0.06172839506172839,0,0,0.06172839506172839,78.76543209876543,0)"
           xlink:href="#M"
           id="use248" />
        <use
           transform="matrix(0.06172839506172839,0,0,0.06172839506172839,87.4074074074074,0)"
           xlink:href="#W"
           id="use250" />
      </g>
      <g
         id="h">
        <use
           transform="matrix(0.06172839506172839,0,0,0.06172839506172839,0,0)"
           xlink:href="#V"
           id="use253" />
        <use
           transform="matrix(0.06172839506172839,0,0,0.06172839506172839,13.518518518518517,0)"
           xlink:href="#L"
           id="use255" />
      </g>
      <path
         fill="#333"
         d="M220-157c-53 9-28 100-34 157h-49v-107c1-27-5-49-29-50C55-147 81-57 75 0H25l-1-190h47c2 12-1 28 3 38 10-53 101-56 108 0 13-22 24-43 59-42 82 1 51 116 57 194h-49v-107c-1-25-5-48-29-50"
         id="Z" />
      <g
         id="i">
        <use
           transform="matrix(0.06172839506172839,0,0,0.06172839506172839,0,0)"
           xlink:href="#Z"
           id="use259" />
        <use
           transform="matrix(0.06172839506172839,0,0,0.06172839506172839,19.753086419753085,0)"
           xlink:href="#O"
           id="use261" />
        <use
           transform="matrix(0.06172839506172839,0,0,0.06172839506172839,25.925925925925924,0)"
           xlink:href="#V"
           id="use263" />
        <use
           transform="matrix(0.06172839506172839,0,0,0.06172839506172839,39.44444444444444,0)"
           xlink:href="#P"
           id="use265" />
        <use
           transform="matrix(0.06172839506172839,0,0,0.06172839506172839,45.617283950617285,0)"
           xlink:href="#W"
           id="use267" />
        <use
           transform="matrix(0.06172839506172839,0,0,0.06172839506172839,57.96296296296296,0)"
           xlink:href="#S"
           id="use269" />
      </g>
      <path
         fill="#333"
         d="M135-194c87-1 58 113 63 194h-50c-7-57 23-157-34-157-59 0-34 97-39 157H25l-1-190h47c2 12-1 28 3 38 12-26 28-41 61-42"
         id="aa" />
      <path
         fill="#333"
         d="M195-6C206 82 75 100 31 46c-4-6-6-13-8-21l49-6c3 16 16 24 34 25 40 0 42-37 40-79-11 22-30 35-61 35-53 0-70-43-70-97 0-56 18-96 73-97 30 0 46 14 59 34l2-30h47zm-90-29c32 0 41-27 41-63 0-35-9-62-40-62-32 0-39 29-40 63 0 36 9 62 39 62"
         id="ab" />
      <g
         id="j">
        <use
           transform="matrix(0.06172839506172839,0,0,0.06172839506172839,0,0)"
           xlink:href="#W"
           id="use274" />
        <use
           transform="matrix(0.06172839506172839,0,0,0.06172839506172839,12.345679012345679,0)"
           xlink:href="#aa"
           id="use276" />
        <use
           transform="matrix(0.06172839506172839,0,0,0.06172839506172839,25.864197530864196,0)"
           xlink:href="#T"
           id="use278" />
        <use
           transform="matrix(0.06172839506172839,0,0,0.06172839506172839,33.20987654320987,0)"
           xlink:href="#P"
           id="use280" />
        <use
           transform="matrix(0.06172839506172839,0,0,0.06172839506172839,39.382716049382715,0)"
           xlink:href="#ab"
           id="use282" />
        <use
           transform="matrix(0.06172839506172839,0,0,0.06172839506172839,52.901234567901234,0)"
           xlink:href="#W"
           id="use284" />
        <use
           transform="matrix(0.06172839506172839,0,0,0.06172839506172839,65.24691358024691,0)"
           xlink:href="#S"
           id="use286" />
      </g>
      <path
         fill="#333"
         d="M63-220v92h138v28H63V0H30v-248h175v28H63"
         id="ac" />
      <path
         fill="#333"
         d="M24-231v-30h32v30H24zM24 0v-190h32V0H24"
         id="ad" />
      <path
         fill="#333"
         d="M59-47c-2 24 18 29 38 22v24C64 9 27 4 27-40v-127H5v-23h24l9-43h21v43h35v23H59v120"
         id="ae" />
      <path
         fill="#333"
         d="M141-36C126-15 110 5 73 4 37 3 15-17 15-53c-1-64 63-63 125-63 3-35-9-54-41-54-24 1-41 7-42 31l-33-3c5-37 33-52 76-52 45 0 72 20 72 64v82c-1 20 7 32 28 27v20c-31 9-61-2-59-35zM48-53c0 20 12 33 32 33 41-3 63-29 60-74-43 2-92-5-92 41"
         id="af" />
      <g
         id="k">
        <use
           transform="matrix(0.06172839506172839,0,0,0.06172839506172839,0,0)"
           xlink:href="#ac"
           id="use293" />
        <use
           transform="matrix(0.06172839506172839,0,0,0.06172839506172839,13.518518518518517,0)"
           xlink:href="#ad"
           id="use295" />
        <use
           transform="matrix(0.06172839506172839,0,0,0.06172839506172839,18.39506172839506,0)"
           xlink:href="#ae"
           id="use297" />
        <use
           transform="matrix(0.06172839506172839,0,0,0.06172839506172839,24.5679012345679,0)"
           xlink:href="#af"
           id="use299" />
      </g>
      <path
         fill="#333"
         d="M190 0L58-211 59 0H30v-248h39L202-35l-2-213h31V0h-41"
         id="ag" />
      <path
         fill="#333"
         d="M85 4C-4 8 31-112 24-190h32v120c0 31 7 50 39 49 72-2 45-101 50-169h31l1 190h-30c-1-10 1-25-2-33-11 22-28 36-60 37zM73-211c8-23 27-35 38-54h36v5l-58 49H73"
         id="ah" />
      <path
         fill="#333"
         d="M210-169c-67 3-38 105-44 169h-31v-121c0-29-5-50-35-48C34-165 62-65 56 0H25l-1-190h30c1 10-1 24 2 32 10-44 99-50 107 0 11-21 27-35 58-36 85-2 47 119 55 194h-31v-121c0-29-5-49-35-48"
         id="ai" />
      <path
         fill="#333"
         d="M100-194c63 0 86 42 84 106H49c0 40 14 67 53 68 26 1 43-12 49-29l28 8c-11 28-37 45-77 45C44 4 14-33 15-96c1-61 26-98 85-98zm52 81c6-60-76-77-97-28-3 7-6 17-6 28h103"
         id="aj" />
      <path
         fill="#333"
         d="M114-163C36-179 61-72 57 0H25l-1-190h30c1 12-1 29 2 39 6-27 23-49 58-41v29"
         id="ak" />
      <path
         fill="#333"
         d="M100-194c62-1 85 37 85 99 1 63-27 99-86 99S16-35 15-95c0-66 28-99 85-99zM99-20c44 1 53-31 53-75 0-43-8-75-51-75s-53 32-53 75 10 74 51 75"
         id="al" />
      <g
         id="l">
        <use
           transform="matrix(0.06172839506172839,0,0,0.06172839506172839,0,0)"
           xlink:href="#ag"
           id="use308" />
        <use
           transform="matrix(0.06172839506172839,0,0,0.06172839506172839,15.987654320987653,0)"
           xlink:href="#ah"
           id="use310" />
        <use
           transform="matrix(0.06172839506172839,0,0,0.06172839506172839,28.333333333333332,0)"
           xlink:href="#ai"
           id="use312" />
        <use
           transform="matrix(0.06172839506172839,0,0,0.06172839506172839,46.79012345679012,0)"
           xlink:href="#aj"
           id="use314" />
        <use
           transform="matrix(0.06172839506172839,0,0,0.06172839506172839,59.1358024691358,0)"
           xlink:href="#ak"
           id="use316" />
        <use
           transform="matrix(0.06172839506172839,0,0,0.06172839506172839,66.48148148148148,0)"
           xlink:href="#al"
           id="use318" />
        <path
           fill="#333"
           d="M-1.1 1.54h81.04v1.63H-1.1z"
           id="path320" />
      </g>
      <path
         fill="#333"
         d="M233-177c-1 41-23 64-60 70L243 0h-38l-65-103H63V0H30v-248c88 3 205-21 203 71zM63-129c60-2 137 13 137-47 0-61-80-42-137-45v92"
         id="am" />
      <path
         fill="#333"
         d="M24 0v-261h32V0H24"
         id="an" />
      <g
         id="m">
        <use
           transform="matrix(0.06172839506172839,0,0,0.06172839506172839,0,0)"
           xlink:href="#am"
           id="use325" />
        <use
           transform="matrix(0.06172839506172839,0,0,0.06172839506172839,15.987654320987653,0)"
           xlink:href="#al"
           id="use327" />
        <use
           transform="matrix(0.06172839506172839,0,0,0.06172839506172839,28.333333333333332,0)"
           xlink:href="#an"
           id="use329" />
        <use
           transform="matrix(0.06172839506172839,0,0,0.06172839506172839,33.20987654320987,0)"
           xlink:href="#al"
           id="use331" />
      </g>
      <g
         id="n">
        <use
           transform="matrix(0.06172839506172839,0,0,0.06172839506172839,0,0)"
           xlink:href="#ac"
           id="use334" />
        <use
           transform="matrix(0.06172839506172839,0,0,0.06172839506172839,13.518518518518517,0)"
           xlink:href="#ad"
           id="use336" />
        <use
           transform="matrix(0.06172839506172839,0,0,0.06172839506172839,18.39506172839506,0)"
           xlink:href="#an"
           id="use338" />
        <use
           transform="matrix(0.06172839506172839,0,0,0.06172839506172839,23.2716049382716,0)"
           xlink:href="#ai"
           id="use340" />
        <use
           transform="matrix(0.06172839506172839,0,0,0.06172839506172839,41.72839506172839,0)"
           xlink:href="#aj"
           id="use342" />
      </g>
      <path
         fill="#333"
         d="M33 0v-248h34V0H33"
         id="ao" />
      <path
         fill="#333"
         d="M30-248c118-7 216 8 213 122C240-48 200 0 122 0H30v-248zM63-27c89 8 146-16 146-99s-60-101-146-95v194"
         id="ap" />
      <g
         id="o">
        <use
           transform="matrix(0.06172839506172839,0,0,0.06172839506172839,0,0)"
           xlink:href="#ao"
           id="use347" />
        <use
           transform="matrix(0.06172839506172839,0,0,0.06172839506172839,6.172839506172839,0)"
           xlink:href="#ap"
           id="use349" />
        <path
           fill="#333"
           d="M-1.1 1.54h24.37v1.63H-1.1z"
           id="path351" />
      </g>
      <path
         fill="#333"
         d="M127-220V0H93v-220H8v-28h204v28h-85"
         id="aq" />
      <path
         fill="#333"
         d="M34 0v-190h32V0H34zM24-211c8-23 27-35 38-54h36v5l-58 49H24"
         id="ar" />
      <path
         fill="#333"
         d="M84 4C-5 8 30-112 23-190h32v120c0 31 7 50 39 49 72-2 45-101 50-169h31l1 190h-30c-1-10 1-25-2-33-11 22-28 36-60 37"
         id="as" />
      <g
         id="p">
        <use
           transform="matrix(0.06172839506172839,0,0,0.06172839506172839,0,0)"
           xlink:href="#aq"
           id="use357" />
        <use
           transform="matrix(0.06172839506172839,0,0,0.06172839506172839,13.518518518518517,0)"
           xlink:href="#ar"
           id="use359" />
        <use
           transform="matrix(0.06172839506172839,0,0,0.06172839506172839,19.691358024691358,0)"
           xlink:href="#ae"
           id="use361" />
        <use
           transform="matrix(0.06172839506172839,0,0,0.06172839506172839,25.864197530864196,0)"
           xlink:href="#as"
           id="use363" />
        <use
           transform="matrix(0.06172839506172839,0,0,0.06172839506172839,38.20987654320987,0)"
           xlink:href="#an"
           id="use365" />
        <use
           transform="matrix(0.06172839506172839,0,0,0.06172839506172839,43.08641975308642,0)"
           xlink:href="#al"
           id="use367" />
      </g>
      <path
         fill="#333"
         d="M205 0l-28-72H64L36 0H1l101-248h38L239 0h-34zm-38-99l-47-123c-12 45-31 82-46 123h93"
         id="at" />
      <g
         id="q">
        <use
           transform="matrix(0.06172839506172839,0,0,0.06172839506172839,0,0)"
           xlink:href="#at"
           id="use371" />
        <use
           transform="matrix(0.06172839506172839,0,0,0.06172839506172839,14.814814814814813,0)"
           xlink:href="#ae"
           id="use373" />
        <use
           transform="matrix(0.06172839506172839,0,0,0.06172839506172839,20.98765432098765,0)"
           xlink:href="#al"
           id="use375" />
        <use
           transform="matrix(0.06172839506172839,0,0,0.06172839506172839,33.33333333333333,0)"
           xlink:href="#ak"
           id="use377" />
      </g>
      <path
         fill="#333"
         d="M212-179c-10-28-35-45-73-45-59 0-87 40-87 99 0 60 29 101 89 101 43 0 62-24 78-52l27 14C228-24 195 4 139 4 59 4 22-46 18-125c-6-104 99-153 187-111 19 9 31 26 39 46"
         id="au" />
      <path
         fill="#333"
         d="M100-194c62-1 85 37 85 99 1 63-27 99-86 99S16-35 15-95c0-66 28-99 85-99zM99-20c44 1 53-31 53-75 0-43-8-75-51-75s-53 32-53 75 10 74 51 75zM76-211c8-23 27-35 38-54h36v5l-58 49H76"
         id="av" />
      <path
         fill="#333"
         d="M85-194c31 0 48 13 60 33l-1-100h32l1 261h-30c-2-10 0-23-3-31C134-8 116 4 85 4 32 4 16-35 15-94c0-66 23-100 70-100zm9 24c-40 0-46 34-46 75 0 40 6 74 45 74 42 0 51-32 51-76 0-42-9-74-50-73"
         id="aw" />
      <path
         fill="#333"
         d="M177-190C167-65 218 103 67 71c-23-6-38-20-44-43l32-5c15 47 100 32 89-28v-30C133-14 115 1 83 1 29 1 15-40 15-95c0-56 16-97 71-98 29-1 48 16 59 35 1-10 0-23 2-32h30zM94-22c36 0 50-32 50-73 0-42-14-75-50-75-39 0-46 34-46 75s6 73 46 73"
         id="ax" />
      <g
         id="r">
        <use
           transform="matrix(0.06172839506172839,0,0,0.06172839506172839,0,0)"
           xlink:href="#au"
           id="use384" />
        <use
           transform="matrix(0.06172839506172839,0,0,0.06172839506172839,15.987654320987653,0)"
           xlink:href="#av"
           id="use386" />
        <use
           transform="matrix(0.06172839506172839,0,0,0.06172839506172839,28.333333333333332,0)"
           xlink:href="#aw"
           id="use388" />
        <use
           transform="matrix(0.06172839506172839,0,0,0.06172839506172839,40.67901234567901,0)"
           xlink:href="#ad"
           id="use390" />
        <use
           transform="matrix(0.06172839506172839,0,0,0.06172839506172839,45.55555555555556,0)"
           xlink:href="#ax"
           id="use392" />
        <use
           transform="matrix(0.06172839506172839,0,0,0.06172839506172839,57.901234567901234,0)"
           xlink:href="#al"
           id="use394" />
        <path
           fill="#333"
           d="M-1.1 1.54h72.46v1.63H-1.1z"
           id="path396" />
      </g>
      <g
         id="s">
        <use
           transform="matrix(0.06172839506172839,0,0,0.06172839506172839,0,0)"
           xlink:href="#ag"
           id="use399" />
        <use
           transform="matrix(0.06172839506172839,0,0,0.06172839506172839,15.987654320987653,0)"
           xlink:href="#al"
           id="use401" />
        <use
           transform="matrix(0.06172839506172839,0,0,0.06172839506172839,28.333333333333332,0)"
           xlink:href="#ai"
           id="use403" />
        <use
           transform="matrix(0.06172839506172839,0,0,0.06172839506172839,46.79012345679012,0)"
           xlink:href="#aj"
           id="use405" />
      </g>
      <path
         fill="#333"
         d="M135-143c-3-34-86-38-87 0 15 53 115 12 119 90S17 21 10-45l28-5c4 36 97 45 98 0-10-56-113-15-118-90-4-57 82-63 122-42 12 7 21 19 24 35"
         id="ay" />
      <path
         fill="#333"
         d="M96-169c-40 0-48 33-48 73s9 75 48 75c24 0 41-14 43-38l32 2c-6 37-31 61-74 61-59 0-76-41-82-99-10-93 101-131 147-64 4 7 5 14 7 22l-32 3c-4-21-16-35-41-35"
         id="az" />
      <g
         id="t">
        <use
           transform="matrix(0.06172839506172839,0,0,0.06172839506172839,0,0)"
           xlink:href="#af"
           id="use410" />
        <use
           transform="matrix(0.06172839506172839,0,0,0.06172839506172839,12.345679012345679,0)"
           xlink:href="#ak"
           id="use412" />
        <use
           transform="matrix(0.06172839506172839,0,0,0.06172839506172839,19.691358024691358,0)"
           xlink:href="#ae"
           id="use414" />
        <use
           transform="matrix(0.06172839506172839,0,0,0.06172839506172839,25.864197530864196,0)"
           xlink:href="#ar"
           id="use416" />
        <use
           transform="matrix(0.06172839506172839,0,0,0.06172839506172839,32.03703703703704,0)"
           xlink:href="#ay"
           id="use418" />
        <use
           transform="matrix(0.06172839506172839,0,0,0.06172839506172839,43.14814814814815,0)"
           xlink:href="#ae"
           id="use420" />
        <use
           transform="matrix(0.06172839506172839,0,0,0.06172839506172839,49.320987654320994,0)"
           xlink:href="#ad"
           id="use422" />
        <use
           transform="matrix(0.06172839506172839,0,0,0.06172839506172839,54.19753086419754,0)"
           xlink:href="#az"
           id="use424" />
        <use
           transform="matrix(0.06172839506172839,0,0,0.06172839506172839,65.30864197530865,0)"
           xlink:href="#al"
           id="use426" />
      </g>
      <g
         id="u">
        <use
           transform="matrix(0.06172839506172839,0,0,0.06172839506172839,0,0)"
           xlink:href="#ak"
           id="use429" />
        <use
           transform="matrix(0.06172839506172839,0,0,0.06172839506172839,7.345679012345679,0)"
           xlink:href="#aj"
           id="use431" />
        <use
           transform="matrix(0.06172839506172839,0,0,0.06172839506172839,19.691358024691358,0)"
           xlink:href="#af"
           id="use433" />
        <use
           transform="matrix(0.06172839506172839,0,0,0.06172839506172839,32.03703703703704,0)"
           xlink:href="#an"
           id="use435" />
      </g>
      <g
         id="v">
        <use
           transform="matrix(0.06172839506172839,0,0,0.06172839506172839,0,0)"
           xlink:href="#ap"
           id="use438" />
        <use
           transform="matrix(0.06172839506172839,0,0,0.06172839506172839,15.987654320987653,0)"
           xlink:href="#af"
           id="use440" />
        <use
           transform="matrix(0.06172839506172839,0,0,0.06172839506172839,28.333333333333332,0)"
           xlink:href="#ae"
           id="use442" />
        <use
           transform="matrix(0.06172839506172839,0,0,0.06172839506172839,34.50617283950617,0)"
           xlink:href="#af"
           id="use444" />
      </g>
      <g
         id="w">
        <use
           transform="matrix(0.06172839506172839,0,0,0.06172839506172839,0,0)"
           xlink:href="#aw"
           id="use447" />
        <use
           transform="matrix(0.06172839506172839,0,0,0.06172839506172839,12.345679012345679,0)"
           xlink:href="#aj"
           id="use449" />
      </g>
      <path
         fill="#333"
         d="M117-194c89-4 53 116 60 194h-32v-121c0-31-8-49-39-48C34-167 62-67 57 0H25l-1-190h30c1 10-1 24 2 32 11-22 29-35 61-36"
         id="aA" />
      <g
         id="x">
        <use
           transform="matrix(0.06172839506172839,0,0,0.06172839506172839,0,0)"
           xlink:href="#aA"
           id="use453" />
        <use
           transform="matrix(0.06172839506172839,0,0,0.06172839506172839,12.345679012345679,0)"
           xlink:href="#af"
           id="use455" />
        <use
           transform="matrix(0.06172839506172839,0,0,0.06172839506172839,24.691358024691358,0)"
           xlink:href="#ay"
           id="use457" />
        <use
           transform="matrix(0.06172839506172839,0,0,0.06172839506172839,35.80246913580247,0)"
           xlink:href="#az"
           id="use459" />
        <use
           transform="matrix(0.06172839506172839,0,0,0.06172839506172839,46.91358024691358,0)"
           xlink:href="#ad"
           id="use461" />
        <use
           transform="matrix(0.06172839506172839,0,0,0.06172839506172839,51.79012345679013,0)"
           xlink:href="#ai"
           id="use463" />
        <use
           transform="matrix(0.06172839506172839,0,0,0.06172839506172839,70.24691358024691,0)"
           xlink:href="#aj"
           id="use465" />
        <use
           transform="matrix(0.06172839506172839,0,0,0.06172839506172839,82.5925925925926,0)"
           xlink:href="#aA"
           id="use467" />
        <use
           transform="matrix(0.06172839506172839,0,0,0.06172839506172839,94.93827160493828,0)"
           xlink:href="#ae"
           id="use469" />
        <use
           transform="matrix(0.06172839506172839,0,0,0.06172839506172839,101.11111111111111,0)"
           xlink:href="#al"
           id="use471" />
      </g>
      <g
         id="y">
        <use
           transform="matrix(0.06172839506172839,0,0,0.06172839506172839,0,0)"
           xlink:href="#au"
           id="use474" />
        <use
           transform="matrix(0.06172839506172839,0,0,0.06172839506172839,15.987654320987653,0)"
           xlink:href="#an"
           id="use476" />
        <use
           transform="matrix(0.06172839506172839,0,0,0.06172839506172839,20.864197530864196,0)"
           xlink:href="#ad"
           id="use478" />
        <use
           transform="matrix(0.06172839506172839,0,0,0.06172839506172839,25.74074074074074,0)"
           xlink:href="#aj"
           id="use480" />
        <use
           transform="matrix(0.06172839506172839,0,0,0.06172839506172839,38.08641975308642,0)"
           xlink:href="#aA"
           id="use482" />
        <use
           transform="matrix(0.06172839506172839,0,0,0.06172839506172839,50.432098765432094,0)"
           xlink:href="#ae"
           id="use484" />
        <use
           transform="matrix(0.06172839506172839,0,0,0.06172839506172839,56.60493827160494,0)"
           xlink:href="#aj"
           id="use486" />
      </g>
      <g
         id="z">
        <use
           transform="matrix(0.06172839506172839,0,0,0.06172839506172839,0,0)"
           xlink:href="#ag"
           id="use489" />
        <use
           transform="matrix(0.06172839506172839,0,0,0.06172839506172839,15.987654320987653,0)"
           xlink:href="#al"
           id="use491" />
        <use
           transform="matrix(0.06172839506172839,0,0,0.06172839506172839,28.333333333333332,0)"
           xlink:href="#ai"
           id="use493" />
        <use
           transform="matrix(0.06172839506172839,0,0,0.06172839506172839,46.79012345679012,0)"
           xlink:href="#aj"
           id="use495" />
      </g>
      <path
         fill="#333"
         d="M185-189c-5-48-123-54-124 2 14 75 158 14 163 119 3 78-121 87-175 55-17-10-28-26-33-46l33-7c5 56 141 63 141-1 0-78-155-14-162-118-5-82 145-84 179-34 5 7 8 16 11 25"
         id="aB" />
      <path
         fill="#333"
         d="M115-194c53 0 69 39 70 98 0 66-23 100-70 100C84 3 66-7 56-30L54 0H23l1-261h32v101c10-23 28-34 59-34zm-8 174c40 0 45-34 45-75 0-40-5-75-45-74-42 0-51 32-51 76 0 43 10 73 51 73"
         id="aC" />
      <g
         id="A">
        <use
           transform="matrix(0.06172839506172839,0,0,0.06172839506172839,0,0)"
           xlink:href="#aB"
           id="use500" />
        <use
           transform="matrix(0.06172839506172839,0,0,0.06172839506172839,14.814814814814813,0)"
           xlink:href="#al"
           id="use502" />
        <use
           transform="matrix(0.06172839506172839,0,0,0.06172839506172839,27.160493827160494,0)"
           xlink:href="#aC"
           id="use504" />
        <use
           transform="matrix(0.06172839506172839,0,0,0.06172839506172839,39.50617283950617,0)"
           xlink:href="#ak"
           id="use506" />
        <use
           transform="matrix(0.06172839506172839,0,0,0.06172839506172839,46.85185185185185,0)"
           xlink:href="#aj"
           id="use508" />
        <use
           transform="matrix(0.06172839506172839,0,0,0.06172839506172839,59.197530864197525,0)"
           xlink:href="#aA"
           id="use510" />
        <use
           transform="matrix(0.06172839506172839,0,0,0.06172839506172839,71.5432098765432,0)"
           xlink:href="#al"
           id="use512" />
        <use
           transform="matrix(0.06172839506172839,0,0,0.06172839506172839,83.88888888888889,0)"
           xlink:href="#ai"
           id="use514" />
        <use
           transform="matrix(0.06172839506172839,0,0,0.06172839506172839,102.34567901234567,0)"
           xlink:href="#aj"
           id="use516" />
      </g>
      <path
         fill="#333"
         d="M101-234c-31-9-42 10-38 44h38v23H63V0H32v-167H5v-23h27c-7-52 17-82 69-68v24"
         id="aD" />
      <g
         id="B">
        <use
           transform="matrix(0.06172839506172839,0,0,0.06172839506172839,0,0)"
           xlink:href="#aq"
           id="use520" />
        <use
           transform="matrix(0.06172839506172839,0,0,0.06172839506172839,11.049382716049381,0)"
           xlink:href="#aj"
           id="use522" />
        <use
           transform="matrix(0.06172839506172839,0,0,0.06172839506172839,23.39506172839506,0)"
           xlink:href="#an"
           id="use524" />
        <use
           transform="matrix(0.06172839506172839,0,0,0.06172839506172839,28.2716049382716,0)"
           xlink:href="#aj"
           id="use526" />
        <use
           transform="matrix(0.06172839506172839,0,0,0.06172839506172839,40.61728395061728,0)"
           xlink:href="#aD"
           id="use528" />
        <use
           transform="matrix(0.06172839506172839,0,0,0.06172839506172839,46.79012345679012,0)"
           xlink:href="#al"
           id="use530" />
        <use
           transform="matrix(0.06172839506172839,0,0,0.06172839506172839,59.1358024691358,0)"
           xlink:href="#aA"
           id="use532" />
        <use
           transform="matrix(0.06172839506172839,0,0,0.06172839506172839,71.48148148148148,0)"
           xlink:href="#aj"
           id="use534" />
      </g>
      <path
         fill="#333"
         d="M30 0v-248h187v28H63v79h144v27H63v87h162V0H30"
         id="aE" />
      <path
         fill="#333"
         d="M96-169c-40 0-48 33-48 73s9 75 48 75c24 0 41-14 43-38l32 2c-6 37-31 61-74 61-59 0-76-41-82-99-10-93 101-131 147-64 4 7 5 14 7 22l-32 3c-4-21-16-35-41-35zm3 187c19-1 33 8 33 26 0 31-30 33-64 32V58c18 2 39 4 41-13 1-15-18-13-34-13L87 0h19"
         id="aF" />
      <g
         id="C">
        <use
           transform="matrix(0.06172839506172839,0,0,0.06172839506172839,0,0)"
           xlink:href="#aE"
           id="use539" />
        <use
           transform="matrix(0.06172839506172839,0,0,0.06172839506172839,14.814814814814813,0)"
           xlink:href="#aA"
           id="use541" />
        <use
           transform="matrix(0.06172839506172839,0,0,0.06172839506172839,27.160493827160494,0)"
           xlink:href="#aw"
           id="use543" />
        <use
           transform="matrix(0.06172839506172839,0,0,0.06172839506172839,39.50617283950617,0)"
           xlink:href="#aj"
           id="use545" />
        <use
           transform="matrix(0.06172839506172839,0,0,0.06172839506172839,51.85185185185185,0)"
           xlink:href="#ak"
           id="use547" />
        <use
           transform="matrix(0.06172839506172839,0,0,0.06172839506172839,59.197530864197525,0)"
           xlink:href="#aj"
           id="use549" />
        <use
           transform="matrix(0.06172839506172839,0,0,0.06172839506172839,71.5432098765432,0)"
           xlink:href="#aF"
           id="use551" />
        <use
           transform="matrix(0.06172839506172839,0,0,0.06172839506172839,82.65432098765432,0)"
           xlink:href="#al"
           id="use553" />
      </g>
      <path
         fill="#333"
         d="M135-194c53 0 70 44 70 98 0 56-19 98-73 100-31 1-45-17-59-34 3 33 2 69 2 105H25l-1-265h48c2 10 0 23 3 31 11-24 29-35 60-35zM114-30c33 0 39-31 40-66 0-38-9-64-40-64-56 0-55 130 0 130"
         id="aG" />
      <path
         fill="#333"
         d="M185-48c-13 30-37 53-82 52C43 2 14-33 14-96s30-98 90-98c62 0 83 45 84 108H66c0 31 8 55 39 56 18 0 30-7 34-22zm-45-69c5-46-57-63-70-21-2 6-4 13-4 21h74zm-67-91v-5l45-51h45v8l-60 48H73"
         id="aH" />
      <g
         id="D">
        <use
           transform="matrix(0.04938271604938272,0,0,0.04938271604938272,0,0)"
           xlink:href="#J"
           id="use558" />
        <use
           transform="matrix(0.04938271604938272,0,0,0.04938271604938272,11.851851851851853,0)"
           xlink:href="#Z"
           id="use560" />
        <use
           transform="matrix(0.04938271604938272,0,0,0.04938271604938272,27.654320987654323,0)"
           xlink:href="#aG"
           id="use562" />
        <use
           transform="matrix(0.04938271604938272,0,0,0.04938271604938272,38.46913580246914,0)"
           xlink:href="#M"
           id="use564" />
        <use
           transform="matrix(0.04938271604938272,0,0,0.04938271604938272,45.38271604938272,0)"
           xlink:href="#aH"
           id="use566" />
        <use
           transform="matrix(0.04938271604938272,0,0,0.04938271604938272,55.25925925925927,0)"
           xlink:href="#S"
           id="use568" />
        <use
           transform="matrix(0.04938271604938272,0,0,0.04938271604938272,65.13580246913581,0)"
           xlink:href="#T"
           id="use570" />
        <use
           transform="matrix(0.04938271604938272,0,0,0.04938271604938272,71.01234567901236,0)"
           xlink:href="#P"
           id="use572" />
        <use
           transform="matrix(0.04938271604938272,0,0,0.04938271604938272,75.95061728395063,0)"
           xlink:href="#Z"
           id="use574" />
        <use
           transform="matrix(0.04938271604938272,0,0,0.04938271604938272,91.7530864197531,0)"
           xlink:href="#Q"
           id="use576" />
      </g>
      <g
         id="E">
        <use
           transform="matrix(0.06172839506172839,0,0,0.06172839506172839,0,0)"
           xlink:href="#au"
           id="use579" />
        <use
           transform="matrix(0.06172839506172839,0,0,0.06172839506172839,15.987654320987653,0)"
           xlink:href="#af"
           id="use581" />
        <use
           transform="matrix(0.06172839506172839,0,0,0.06172839506172839,28.333333333333332,0)"
           xlink:href="#ae"
           id="use583" />
        <use
           transform="matrix(0.06172839506172839,0,0,0.06172839506172839,34.50617283950617,0)"
           xlink:href="#aj"
           id="use585" />
        <use
           transform="matrix(0.06172839506172839,0,0,0.06172839506172839,46.85185185185185,0)"
           xlink:href="#ax"
           id="use587" />
        <use
           transform="matrix(0.06172839506172839,0,0,0.06172839506172839,59.197530864197525,0)"
           xlink:href="#al"
           id="use589" />
        <use
           transform="matrix(0.06172839506172839,0,0,0.06172839506172839,71.5432098765432,0)"
           xlink:href="#ak"
           id="use591" />
        <use
           transform="matrix(0.06172839506172839,0,0,0.06172839506172839,78.88888888888889,0)"
           xlink:href="#ad"
           id="use593" />
        <use
           transform="matrix(0.06172839506172839,0,0,0.06172839506172839,83.76543209876543,0)"
           xlink:href="#af"
           id="use595" />
      </g>
      <path
         fill="#333"
         d="M25 0v-261h50V0H25"
         id="aI" />
      <g
         id="F">
        <use
           transform="matrix(0.04938271604938272,0,0,0.04938271604938272,0,0)"
           xlink:href="#J"
           id="use599" />
        <use
           transform="matrix(0.04938271604938272,0,0,0.04938271604938272,11.851851851851853,0)"
           xlink:href="#S"
           id="use601" />
        <use
           transform="matrix(0.04938271604938272,0,0,0.04938271604938272,21.7283950617284,0)"
           xlink:href="#T"
           id="use603" />
        <use
           transform="matrix(0.04938271604938272,0,0,0.04938271604938272,27.604938271604947,0)"
           xlink:href="#M"
           id="use605" />
        <use
           transform="matrix(0.04938271604938272,0,0,0.04938271604938272,34.518518518518526,0)"
           xlink:href="#L"
           id="use607" />
        <use
           transform="matrix(0.04938271604938272,0,0,0.04938271604938272,44.39506172839507,0)"
           xlink:href="#aI"
           id="use609" />
        <use
           transform="matrix(0.04938271604938272,0,0,0.04938271604938272,49.33333333333334,0)"
           xlink:href="#W"
           id="use611" />
      </g>
      <path
         fill="#333"
         d="M30 0v-248h33v221h125V0H30"
         id="aJ" />
      <g
         id="G">
        <use
           transform="matrix(0.06172839506172839,0,0,0.06172839506172839,0,0)"
           xlink:href="#aJ"
           id="use615" />
        <use
           transform="matrix(0.06172839506172839,0,0,0.06172839506172839,12.345679012345679,0)"
           xlink:href="#al"
           id="use617" />
        <use
           transform="matrix(0.06172839506172839,0,0,0.06172839506172839,24.691358024691358,0)"
           xlink:href="#az"
           id="use619" />
        <use
           transform="matrix(0.06172839506172839,0,0,0.06172839506172839,35.80246913580247,0)"
           xlink:href="#af"
           id="use621" />
        <use
           transform="matrix(0.06172839506172839,0,0,0.06172839506172839,48.148148148148145,0)"
           xlink:href="#aw"
           id="use623" />
        <use
           transform="matrix(0.06172839506172839,0,0,0.06172839506172839,60.49382716049382,0)"
           xlink:href="#al"
           id="use625" />
        <use
           transform="matrix(0.06172839506172839,0,0,0.06172839506172839,72.8395061728395,0)"
           xlink:href="#ak"
           id="use627" />
        <use
           transform="matrix(0.06172839506172839,0,0,0.06172839506172839,80.18518518518519,0)"
           xlink:href="#af"
           id="use629" />
      </g>
      <path
         fill="#333"
         d="M30-248c87 1 191-15 191 75 0 78-77 80-158 76V0H30v-248zm33 125c57 0 124 11 124-50 0-59-68-47-124-48v98"
         id="aK" />
      <path
         fill="#333"
         d="M153-248C145-148 188 4 80 4 36 3 13-21 6-62l32-5c4 25 16 42 43 43 27 0 39-20 39-49v-147H72v-28h81"
         id="aL" />
      <g
         id="H">
        <use
           transform="matrix(0.06172839506172839,0,0,0.06172839506172839,0,0)"
           xlink:href="#au"
           id="use634" />
        <use
           transform="matrix(0.06172839506172839,0,0,0.06172839506172839,15.987654320987653,0)"
           xlink:href="#ag"
           id="use636" />
        <use
           transform="matrix(0.06172839506172839,0,0,0.06172839506172839,31.975308641975307,0)"
           xlink:href="#aK"
           id="use638" />
        <use
           transform="matrix(0.06172839506172839,0,0,0.06172839506172839,46.79012345679012,0)"
           xlink:href="#aL"
           id="use640" />
      </g>
      <g
         id="I">
        <use
           transform="matrix(0.06172839506172837,0,0,0.06172839506172837,0,0)"
           xlink:href="#at"
           id="use643" />
        <use
           transform="matrix(0.06172839506172837,0,0,0.06172839506172837,14.81481481481481,0)"
           xlink:href="#an"
           id="use645" />
        <use
           transform="matrix(0.06172839506172837,0,0,0.06172839506172837,19.69135802469135,0)"
           xlink:href="#as"
           id="use647" />
        <use
           transform="matrix(0.06172839506172837,0,0,0.06172839506172837,32.037037037037024,0)"
           xlink:href="#ax"
           id="use649" />
        <use
           transform="matrix(0.06172839506172837,0,0,0.06172839506172837,44.382716049382694,0)"
           xlink:href="#as"
           id="use651" />
        <use
           transform="matrix(0.06172839506172837,0,0,0.06172839506172837,56.728395061728364,0)"
           xlink:href="#aj"
           id="use653" />
        <use
           transform="matrix(0.06172839506172837,0,0,0.06172839506172837,69.07407407407403,0)"
           xlink:href="#an"
           id="use655" />
      </g>
    </defs>
  </defs>
  <sodipodi:namedview
     pagecolor="#ffffff"
     bordercolor="#666666"
     borderopacity="1"
     objecttolerance="10"
     gridtolerance="10"
     guidetolerance="10"
     inkscape:pageopacity="0"
     inkscape:pageshadow="2"
     inkscape:window-width="1366"
     inkscape:window-height="715"
     id="namedview664"
     showgrid="false"
     inkscape:zoom="0.42781557"
     inkscape:cx="551.45598"
     inkscape:cy="361.62473"
     inkscape:window-x="-8"
     inkscape:window-y="-8"
     inkscape:window-maximized="1"
     inkscape:current-layer="svg662" />
  <path
     d="m 74,46 c 0,-3.3 2.7,-6 6,-6 h 468 c 3.3,0 6,2.7 6,6 v 104.67 c 0,3.3 -2.7,6 -6,6 H 80 c -3.3,0 -6,-2.7 -6,-6 z"
     stroke="#000000"
     stroke-opacity="0"
     stroke-width="3"
     fill="#ffffff"
     fill-opacity="0"
     id="path2" />
  <use
     xlink:href="#a"
     transform="translate(79,76.152778)"
     id="use4"
     x="0"
     y="0"
     width="100%"
     height="100%" />
  <use
     xlink:href="#b"
     transform="translate(183.87654,76.152778)"
     id="use6"
     x="0"
     y="0"
     width="100%"
     height="100%" />
  <use
     xlink:href="#c"
     transform="translate(79,102.81944)"
     id="use8"
     x="0"
     y="0"
     width="100%"
     height="100%" />
  <use
     xlink:href="#d"
     transform="translate(160.23457,102.81944)"
     id="use10"
     x="0"
     y="0"
     width="100%"
     height="100%" />
  <use
     xlink:href="#e"
     transform="translate(192.2716,102.81944)"
     id="use12"
     x="0"
     y="0"
     width="100%"
     height="100%" />
  <use
     xlink:href="#f"
     transform="translate(249,102.81944)"
     id="use14"
     x="0"
     y="0"
     width="100%"
     height="100%" />
  <use
     xlink:href="#g"
     transform="translate(262.51852,102.81944)"
     id="use16"
     x="0"
     y="0"
     width="100%"
     height="100%" />
  <use
     xlink:href="#h"
     transform="translate(368.4444,102.81944)"
     id="use18"
     x="0"
     y="0"
     width="100%"
     height="100%" />
  <use
     xlink:href="#i"
     transform="translate(400.4815,102.81944)"
     id="use20"
     x="0"
     y="0"
     width="100%"
     height="100%" />
  <use
     xlink:href="#j"
     transform="translate(79,129.48611)"
     id="use22"
     x="0"
     y="0"
     width="100%"
     height="100%" />
  <path
     d="M 394,560 H 594 V 674 H 394 Z"
     fill="#ffffff"
     id="path24" />
  <path
     d="M 394,560 H 594 V 674 H 394 Z m 0,40 h 200"
     stroke="#5e5e5e"
     stroke-width="3"
     fill="none"
     id="path26" />
  <use
     xlink:href="#k"
     transform="translate(475.5432,584.44444)"
     id="use28"
     x="0"
     y="0"
     width="100%"
     height="100%" />
  <use
     xlink:href="#l"
     transform="translate(399,622.94444)"
     id="use30"
     x="0"
     y="0"
     width="100%"
     height="100%" />
  <use
     xlink:href="#m"
     transform="translate(399,659.94444)"
     id="use32"
     x="0"
     y="0"
     width="100%"
     height="100%" />
  <path
     d="M 394,800 H 594 V 914 H 394 Z"
     fill="#ffffff"
     id="path34" />
  <path
     d="M 394,800 H 594 V 914 H 394 Z m 0,40 h 200"
     stroke="#5e5e5e"
     stroke-width="3"
     fill="none"
     id="path36" />
  <use
     xlink:href="#n"
     transform="translate(466.963,824.44444)"
     id="use38"
     x="0"
     y="0"
     width="100%"
     height="100%" />
  <use
     xlink:href="#o"
     transform="translate(399,862.94444)"
     id="use40"
     x="0"
     y="0"
     width="100%"
     height="100%" />
  <use
     xlink:href="#p"
     transform="translate(399,899.94444)"
     id="use42"
     x="0"
     y="0"
     width="100%"
     height="100%" />
  <path
     d="M 494,778.5 V 694.32"
     stroke="#5e5e5e"
     stroke-width="2"
     fill="none"
     id="path44" />
  <path
     d="m 504,778.5 h -20 m 10,20 v -20"
     stroke="#5e5e5e"
     stroke-width="2"
     fill="#ffffff"
     id="path46" />
  <path
     d="m 504,675.95 -10,20 -10,-20"
     stroke="#5e5e5e"
     stroke-width="2"
     fill="#ffffff"
     fill-opacity="0"
     id="path48" />
  <path
     d="m 494,675.95 v 20"
     stroke="#5e5e5e"
     stroke-width="2"
     fill="#ffffff"
     id="path50" />
  <path
     d="m 734,800 h 200 v 214 H 734 Z"
     fill="#ffffff"
     id="path52" />
  <path
     d="m 734,800 h 200 v 214 H 734 Z m 0,40 h 200"
     stroke="#5e5e5e"
     stroke-width="3"
     fill="none"
     id="path54" />
  <use
     xlink:href="#q"
     transform="translate(813.6605,824.44444)"
     id="use56"
     x="0"
     y="0"
     width="100%"
     height="100%" />
  <use
     xlink:href="#r"
     transform="translate(739,862.94444)"
     id="use58"
     x="0"
     y="0"
     width="100%"
     height="100%" />
  <use
     xlink:href="#s"
     transform="translate(739,899.94444)"
     id="use60"
     x="0"
     y="0"
     width="100%"
     height="100%" />
  <use
     xlink:href="#t"
     transform="translate(804.3086,899.94444)"
     id="use62"
     x="0"
     y="0"
     width="100%"
     height="100%" />
  <use
     xlink:href="#s"
     transform="translate(739,936.94444)"
     id="use64"
     x="0"
     y="0"
     width="100%"
     height="100%" />
  <use
     xlink:href="#u"
     transform="translate(804.3086,936.94444)"
     id="use66"
     x="0"
     y="0"
     width="100%"
     height="100%" />
  <use
     xlink:href="#v"
     transform="translate(739,973.61111)"
     id="use68"
     x="0"
     y="0"
     width="100%"
     height="100%" />
  <use
     xlink:href="#w"
     transform="translate(792.0247,973.61111)"
     id="use70"
     x="0"
     y="0"
     width="100%"
     height="100%" />
  <use
     xlink:href="#x"
     transform="translate(739,1000.2778)"
     id="use72"
     x="0"
     y="0"
     width="100%"
     height="100%" />
  <path
     d="M 394,220 H 594 V 445 H 394 Z"
     fill="#ffffff"
     id="path74" />
  <path
     d="M 394,220 H 594 V 445 H 394 Z m 0,40 h 200"
     stroke="#5e5e5e"
     stroke-width="3"
     fill="none"
     id="path76" />
  <use
     xlink:href="#y"
     transform="translate(459.5247,244.44444)"
     id="use78"
     x="0"
     y="0"
     width="100%"
     height="100%" />
  <use
     xlink:href="#l"
     transform="translate(399,282.94444)"
     id="use80"
     x="0"
     y="0"
     width="100%"
     height="100%" />
  <use
     xlink:href="#z"
     transform="translate(399,319.94444)"
     id="use82"
     x="0"
     y="0"
     width="100%"
     height="100%" />
  <use
     xlink:href="#A"
     transform="translate(399,356.94444)"
     id="use84"
     x="0"
     y="0"
     width="100%"
     height="100%" />
  <use
     xlink:href="#B"
     transform="translate(399,393.94444)"
     id="use86"
     x="0"
     y="0"
     width="100%"
     height="100%" />
  <use
     xlink:href="#C"
     transform="translate(399,430.94444)"
     id="use88"
     x="0"
     y="0"
     width="100%"
     height="100%" />
  <path
     d="m 495,539.68 h -2 v -35 h 2 m 0,-21.33 h -2 V 466.5 h 2"
     fill="#5e5e5e"
     id="path90" />
  <path
     fill="#ffffff"
     id="path92"
     d="" />
  <path
     d="m 504,467.5 h -20 v -2 h 20"
     fill="#5e5e5e"
     id="path94" />
  <path
     fill="#ffffff"
     id="path96"
     d="" />
  <path
     d="m 495,466.5 h -2 v -20 h 2"
     fill="#5e5e5e"
     id="path98" />
  <path
     d="m 484,558.05 10,-20 10,20"
     fill="#ffffff"
     fill-opacity="0"
     id="path100" />
  <path
     d="m 504.9,557.6 -1.8,0.9 -9.1,-18.2 -9.1,18.2 -1.8,-0.9 10.9,-21.78"
     fill="#5e5e5e"
     id="path102" />
  <path
     fill="#ffffff"
     id="path104"
     d="" />
  <path
     d="m 495,558.05 h -2 v -20 h 2"
     fill="#5e5e5e"
     id="path106" />
  <use
     xlink:href="#D"
     transform="translate(442.716,497.57601)"
     id="use108"
     x="0"
     y="0"
     width="100%"
     height="100%" />
  <path
     d="m 394,1040 h 200 v 114 H 394 Z"
     fill="#ffffff"
     id="path110" />
  <path
     d="m 394,1040 h 200 v 114 H 394 Z m 0,40 h 200"
     stroke="#5e5e5e"
     stroke-width="3"
     fill="none"
     id="path112" />
  <use
     xlink:href="#E"
     transform="translate(445.9444,1064.4444)"
     id="use114"
     x="0"
     y="0"
     width="100%"
     height="100%" />
  <use
     xlink:href="#r"
     transform="translate(399,1102.9444)"
     id="use116"
     x="0"
     y="0"
     width="100%"
     height="100%" />
  <use
     xlink:href="#z"
     transform="translate(399,1139.9444)"
     id="use118"
     x="0"
     y="0"
     width="100%"
     height="100%" />
  <path
     d="M 494,1018.5 V 934.32"
     stroke="#5e5e5e"
     stroke-width="2"
     fill="none"
     id="path120" />
  <path
     d="m 504,1018.5 h -20 m 10,20 v -20"
     stroke="#5e5e5e"
     stroke-width="2"
     fill="#ffffff"
     id="path122" />
  <path
     d="m 504,915.95 -10,20 -10,-20"
     stroke="#5e5e5e"
     stroke-width="2"
     fill="#ffffff"
     fill-opacity="0"
     id="path124" />
  <path
     d="m 494,915.95 v 20"
     stroke="#5e5e5e"
     stroke-width="2"
     fill="#ffffff"
     id="path126" />
  <path
     d="m 655.15,759.5 h -13.52 l -2.64,0.7 -1.8,1.8 -0.7,2.63 v 88 l -0.92,3.42 -2.53,2.53 -3.42,0.92 h -15.3 v -2 h 15.04 l 2.64,-0.7 1.8,-1.8 0.7,-2.63 v -88 l 0.92,-3.42 2.53,-2.53 3.42,-0.92 h 13.78 m 176.4,0.92 2.53,2.53 0.92,3.42 v 15.3 h -2 v -15.04 l -0.7,-2.64 -1.8,-1.8 -2.63,-0.7 H 714.35 v -2 h 113.78"
     fill="#5e5e5e"
     id="path128" />
  <path
     d="m 595.95,848.5 20,10 -20,10"
     fill="#ffffff"
     fill-opacity="0"
     id="path130" />
  <path
     d="m 618.18,858.5 -21.8,10.9 -0.88,-1.8 18.2,-9.1 -18.2,-9.1 0.9,-1.8"
     fill="#5e5e5e"
     id="path132" />
  <path
     fill="#ffffff"
     id="path134"
     d="" />
  <path
     d="m 615.95,859.5 h -20 v -2 h 20"
     fill="#5e5e5e"
     id="path136" />
  <path
     d="m 824,798.05 10,-20 10,20"
     fill="#ffffff"
     fill-opacity="0"
     id="path138" />
  <path
     d="m 844.9,797.6 -1.8,0.9 -9.1,-18.2 -9.1,18.2 -1.8,-0.9 10.9,-21.78"
     fill="#5e5e5e"
     id="path140" />
  <path
     fill="#ffffff"
     id="path142"
     d="" />
  <path
     d="m 835,798.05 h -2 v -20 h 2"
     fill="#5e5e5e"
     id="path144" />
  <g
     id="g148"
     transform="translate(-726)">
    <use
       xlink:href="#F"
       transform="translate(1381.1451,762.05556)"
       id="use146"
       x="0"
       y="0"
       width="100%"
       height="100%" />
  </g>
  <path
     d="M 74,560 H 274 V 674 H 74 Z"
     fill="#ffffff"
     id="path150" />
  <path
     d="M 74,560 H 274 V 674 H 74 Z m 0,40 h 200"
     stroke="#5e5e5e"
     stroke-width="3"
     fill="none"
     id="path152" />
  <g
     id="g156"
     transform="translate(-726)">
    <use
       xlink:href="#G"
       transform="translate(853.73457,584.44444)"
       id="use154"
       x="0"
       y="0"
       width="100%"
       height="100%" />
  </g>
  <g
     id="g160"
     transform="translate(-726)">
    <use
       xlink:href="#H"
       transform="translate(805,622.94444)"
       id="use158"
       x="0"
       y="0"
       width="100%"
       height="100%" />
  </g>
  <g
     id="g164"
     transform="translate(-726)">
    <use
       xlink:href="#z"
       transform="translate(805,659.94444)"
       id="use162"
       x="0"
       y="0"
       width="100%"
       height="100%" />
  </g>
</svg>
